<mxfile host="app.diagrams.net" agent="Mozilla/5.0 (Windows NT 10.0; Win64; x64) AppleWebKit/537.36 (KHTML, like Gecko) Chrome/130.0.0.0 Safari/537.36" version="24.8.2">
  <diagram name="Страница — 1" id="fx7uQK-0CRvI9rPKiEYD">
    <mxGraphModel dx="1293" dy="558" grid="1" gridSize="10" guides="1" tooltips="1" connect="1" arrows="1" fold="1" page="1" pageScale="1" pageWidth="1169" pageHeight="827" math="0" shadow="0">
      <root>
        <mxCell id="0" />
        <mxCell id="1" parent="0" />
        <mxCell id="-a0xLOdZY-EFVbSBvTB6-1" value="Оформление ипотеки" style="swimlane;html=1;childLayout=stackLayout;resizeParent=1;resizeParentMax=0;horizontal=0;startSize=20;horizontalStack=0;whiteSpace=wrap;" parent="1" vertex="1">
          <mxGeometry x="120" y="30" width="1850" height="680" as="geometry" />
        </mxCell>
        <mxCell id="-a0xLOdZY-EFVbSBvTB6-26" style="edgeStyle=orthogonalEdgeStyle;rounded=0;orthogonalLoop=1;jettySize=auto;html=1;entryX=0;entryY=0.5;entryDx=0;entryDy=0;entryPerimeter=0;" parent="-a0xLOdZY-EFVbSBvTB6-1" target="-a0xLOdZY-EFVbSBvTB6-25" edge="1">
          <mxGeometry relative="1" as="geometry">
            <Array as="points">
              <mxPoint x="850" y="440" />
              <mxPoint x="850" y="160" />
            </Array>
            <mxPoint x="845" y="440" as="sourcePoint" />
          </mxGeometry>
        </mxCell>
        <mxCell id="-a0xLOdZY-EFVbSBvTB6-33" style="edgeStyle=orthogonalEdgeStyle;rounded=0;orthogonalLoop=1;jettySize=auto;html=1;entryX=0;entryY=0.5;entryDx=0;entryDy=0;entryPerimeter=0;" parent="-a0xLOdZY-EFVbSBvTB6-1" source="-a0xLOdZY-EFVbSBvTB6-25" target="P9ozjkM_OFoo9wz9tVRu-3" edge="1">
          <mxGeometry relative="1" as="geometry">
            <mxPoint x="1220" y="440" as="targetPoint" />
          </mxGeometry>
        </mxCell>
        <mxCell id="-a0xLOdZY-EFVbSBvTB6-2" value="Клиент" style="swimlane;html=1;startSize=20;horizontal=0;" parent="-a0xLOdZY-EFVbSBvTB6-1" vertex="1">
          <mxGeometry x="20" width="1830" height="330" as="geometry" />
        </mxCell>
        <mxCell id="-a0xLOdZY-EFVbSBvTB6-5" value="Инициировано &lt;br&gt;оформление ипотеки" style="points=[[0.145,0.145,0],[0.5,0,0],[0.855,0.145,0],[1,0.5,0],[0.855,0.855,0],[0.5,1,0],[0.145,0.855,0],[0,0.5,0]];shape=mxgraph.bpmn.event;html=1;verticalLabelPosition=bottom;labelBackgroundColor=#ffffff;verticalAlign=top;align=center;perimeter=ellipsePerimeter;outlineConnect=0;aspect=fixed;outline=standard;symbol=general;" parent="-a0xLOdZY-EFVbSBvTB6-2" vertex="1">
          <mxGeometry x="60" y="135" width="50" height="50" as="geometry" />
        </mxCell>
        <mxCell id="-a0xLOdZY-EFVbSBvTB6-17" style="edgeStyle=orthogonalEdgeStyle;rounded=0;orthogonalLoop=1;jettySize=auto;html=1;" parent="-a0xLOdZY-EFVbSBvTB6-2" source="-a0xLOdZY-EFVbSBvTB6-7" target="-a0xLOdZY-EFVbSBvTB6-13" edge="1">
          <mxGeometry relative="1" as="geometry" />
        </mxCell>
        <mxCell id="-a0xLOdZY-EFVbSBvTB6-7" value="Составить заявку на ипотеку" style="points=[[0.25,0,0],[0.5,0,0],[0.75,0,0],[1,0.25,0],[1,0.5,0],[1,0.75,0],[0.75,1,0],[0.5,1,0],[0.25,1,0],[0,0.75,0],[0,0.5,0],[0,0.25,0]];shape=mxgraph.bpmn.task;whiteSpace=wrap;rectStyle=rounded;size=10;html=1;container=1;expand=0;collapsible=0;taskMarker=user;" parent="-a0xLOdZY-EFVbSBvTB6-2" vertex="1">
          <mxGeometry x="160" y="120" width="120" height="80" as="geometry" />
        </mxCell>
        <mxCell id="-a0xLOdZY-EFVbSBvTB6-8" value="" style="shape=mxgraph.bpmn.data;labelPosition=center;verticalLabelPosition=bottom;align=center;verticalAlign=top;size=15;html=1;" parent="-a0xLOdZY-EFVbSBvTB6-2" vertex="1">
          <mxGeometry x="230" y="240" width="40" height="60" as="geometry" />
        </mxCell>
        <mxCell id="-a0xLOdZY-EFVbSBvTB6-10" value="Заявка на ипотеку" style="html=1;shape=mxgraph.flowchart.annotation_2;align=left;labelPosition=right;" parent="-a0xLOdZY-EFVbSBvTB6-2" vertex="1">
          <mxGeometry x="270" y="240" width="30" height="40" as="geometry" />
        </mxCell>
        <mxCell id="-a0xLOdZY-EFVbSBvTB6-9" value="" style="edgeStyle=elbowEdgeStyle;fontSize=12;html=1;endFill=0;startFill=0;endSize=6;startSize=6;dashed=1;dashPattern=1 4;endArrow=openThin;startArrow=none;rounded=0;" parent="-a0xLOdZY-EFVbSBvTB6-2" edge="1">
          <mxGeometry width="160" relative="1" as="geometry">
            <mxPoint x="250" y="200" as="sourcePoint" />
            <mxPoint x="250" y="240" as="targetPoint" />
          </mxGeometry>
        </mxCell>
        <mxCell id="-a0xLOdZY-EFVbSBvTB6-52" style="edgeStyle=orthogonalEdgeStyle;rounded=0;orthogonalLoop=1;jettySize=auto;html=1;" parent="-a0xLOdZY-EFVbSBvTB6-2" source="-a0xLOdZY-EFVbSBvTB6-13" target="-a0xLOdZY-EFVbSBvTB6-51" edge="1">
          <mxGeometry relative="1" as="geometry" />
        </mxCell>
        <mxCell id="-a0xLOdZY-EFVbSBvTB6-13" value="Проверить кредитную историю" style="points=[[0.25,0,0],[0.5,0,0],[0.75,0,0],[1,0.25,0],[1,0.5,0],[1,0.75,0],[0.75,1,0],[0.5,1,0],[0.25,1,0],[0,0.75,0],[0,0.5,0],[0,0.25,0]];shape=mxgraph.bpmn.task;whiteSpace=wrap;rectStyle=rounded;size=10;html=1;container=1;expand=0;collapsible=0;taskMarker=service;" parent="-a0xLOdZY-EFVbSBvTB6-2" vertex="1">
          <mxGeometry x="330" y="120" width="120" height="80" as="geometry" />
        </mxCell>
        <mxCell id="-a0xLOdZY-EFVbSBvTB6-15" style="edgeStyle=orthogonalEdgeStyle;rounded=0;orthogonalLoop=1;jettySize=auto;html=1;entryX=0;entryY=0.5;entryDx=0;entryDy=0;entryPerimeter=0;" parent="-a0xLOdZY-EFVbSBvTB6-2" source="-a0xLOdZY-EFVbSBvTB6-5" target="-a0xLOdZY-EFVbSBvTB6-7" edge="1">
          <mxGeometry relative="1" as="geometry" />
        </mxCell>
        <mxCell id="-a0xLOdZY-EFVbSBvTB6-25" value="Подписать договор" style="points=[[0.25,0,0],[0.5,0,0],[0.75,0,0],[1,0.25,0],[1,0.5,0],[1,0.75,0],[0.75,1,0],[0.5,1,0],[0.25,1,0],[0,0.75,0],[0,0.5,0],[0,0.25,0]];shape=mxgraph.bpmn.task;whiteSpace=wrap;rectStyle=rounded;size=10;html=1;container=1;expand=0;collapsible=0;taskMarker=manual;" parent="-a0xLOdZY-EFVbSBvTB6-2" vertex="1">
          <mxGeometry x="850" y="120" width="120" height="80" as="geometry" />
        </mxCell>
        <mxCell id="-a0xLOdZY-EFVbSBvTB6-29" value="" style="shape=mxgraph.bpmn.data;labelPosition=center;verticalLabelPosition=bottom;align=center;verticalAlign=top;size=15;html=1;" parent="-a0xLOdZY-EFVbSBvTB6-2" vertex="1">
          <mxGeometry x="940" y="20" width="40" height="60" as="geometry" />
        </mxCell>
        <mxCell id="-a0xLOdZY-EFVbSBvTB6-30" value="Подписанный договор" style="html=1;shape=mxgraph.flowchart.annotation_2;align=left;labelPosition=right;" parent="-a0xLOdZY-EFVbSBvTB6-2" vertex="1">
          <mxGeometry x="980" y="20" width="30" height="40" as="geometry" />
        </mxCell>
        <mxCell id="-a0xLOdZY-EFVbSBvTB6-31" value="" style="edgeStyle=elbowEdgeStyle;fontSize=12;html=1;endFill=0;startFill=0;endSize=6;startSize=6;dashed=1;dashPattern=1 4;endArrow=openThin;startArrow=none;rounded=0;exitX=0.5;exitY=0;exitDx=0;exitDy=0;exitPerimeter=0;entryX=0;entryY=0.5;entryDx=0;entryDy=0;entryPerimeter=0;" parent="-a0xLOdZY-EFVbSBvTB6-2" source="-a0xLOdZY-EFVbSBvTB6-25" target="-a0xLOdZY-EFVbSBvTB6-29" edge="1">
          <mxGeometry width="160" relative="1" as="geometry">
            <mxPoint x="1020" y="160" as="sourcePoint" />
            <mxPoint x="1180" y="160" as="targetPoint" />
            <Array as="points">
              <mxPoint x="910" y="60" />
            </Array>
          </mxGeometry>
        </mxCell>
        <mxCell id="-a0xLOdZY-EFVbSBvTB6-32" value="" style="edgeStyle=elbowEdgeStyle;fontSize=12;html=1;endFill=0;startFill=0;endSize=6;startSize=6;dashed=1;dashPattern=1 4;endArrow=openThin;startArrow=none;rounded=0;entryX=0.5;entryY=0;entryDx=0;entryDy=0;entryPerimeter=0;" parent="-a0xLOdZY-EFVbSBvTB6-2" edge="1">
          <mxGeometry width="160" relative="1" as="geometry">
            <mxPoint x="980" y="70" as="sourcePoint" />
            <mxPoint x="1260" y="400.0000000000001" as="targetPoint" />
            <Array as="points">
              <mxPoint x="1260" y="240" />
            </Array>
          </mxGeometry>
        </mxCell>
        <mxCell id="-a0xLOdZY-EFVbSBvTB6-51" value="" style="points=[[0.25,0.25,0],[0.5,0,0],[0.75,0.25,0],[1,0.5,0],[0.75,0.75,0],[0.5,1,0],[0.25,0.75,0],[0,0.5,0]];shape=mxgraph.bpmn.gateway2;html=1;verticalLabelPosition=bottom;labelBackgroundColor=#ffffff;verticalAlign=top;align=center;perimeter=rhombusPerimeter;outlineConnect=0;outline=none;symbol=none;gwType=exclusive;" parent="-a0xLOdZY-EFVbSBvTB6-2" vertex="1">
          <mxGeometry x="480" y="135" width="50" height="50" as="geometry" />
        </mxCell>
        <mxCell id="-a0xLOdZY-EFVbSBvTB6-53" value="Уведомить клиента об отказе" style="points=[[0.25,0,0],[0.5,0,0],[0.75,0,0],[1,0.25,0],[1,0.5,0],[1,0.75,0],[0.75,1,0],[0.5,1,0],[0.25,1,0],[0,0.75,0],[0,0.5,0],[0,0.25,0]];shape=mxgraph.bpmn.task;whiteSpace=wrap;rectStyle=rounded;size=10;html=1;container=1;expand=0;collapsible=0;taskMarker=service;" parent="-a0xLOdZY-EFVbSBvTB6-2" vertex="1">
          <mxGeometry x="530" y="20" width="120" height="80" as="geometry" />
        </mxCell>
        <mxCell id="-a0xLOdZY-EFVbSBvTB6-54" value="" style="edgeStyle=elbowEdgeStyle;fontSize=12;html=1;endArrow=blockThin;endFill=1;rounded=0;entryX=0;entryY=0.5;entryDx=0;entryDy=0;entryPerimeter=0;exitX=0.5;exitY=0;exitDx=0;exitDy=0;exitPerimeter=0;" parent="-a0xLOdZY-EFVbSBvTB6-2" source="-a0xLOdZY-EFVbSBvTB6-51" target="-a0xLOdZY-EFVbSBvTB6-53" edge="1">
          <mxGeometry width="160" relative="1" as="geometry">
            <mxPoint x="500" y="130" as="sourcePoint" />
            <mxPoint x="720" y="130" as="targetPoint" />
            <Array as="points">
              <mxPoint x="505" y="100" />
            </Array>
          </mxGeometry>
        </mxCell>
        <mxCell id="-a0xLOdZY-EFVbSBvTB6-58" value="Плохая кредитная история" style="edgeLabel;html=1;align=center;verticalAlign=middle;resizable=0;points=[];" parent="-a0xLOdZY-EFVbSBvTB6-54" vertex="1" connectable="0">
          <mxGeometry x="-0.3285" y="4" relative="1" as="geometry">
            <mxPoint x="4" y="8" as="offset" />
          </mxGeometry>
        </mxCell>
        <mxCell id="-a0xLOdZY-EFVbSBvTB6-56" value="Заявка отклонена" style="points=[[0.145,0.145,0],[0.5,0,0],[0.855,0.145,0],[1,0.5,0],[0.855,0.855,0],[0.5,1,0],[0.145,0.855,0],[0,0.5,0]];shape=mxgraph.bpmn.event;html=1;verticalLabelPosition=bottom;labelBackgroundColor=#ffffff;verticalAlign=top;align=center;perimeter=ellipsePerimeter;outlineConnect=0;aspect=fixed;outline=end;symbol=terminate2;" parent="-a0xLOdZY-EFVbSBvTB6-2" vertex="1">
          <mxGeometry x="730" y="35" width="50" height="50" as="geometry" />
        </mxCell>
        <mxCell id="-a0xLOdZY-EFVbSBvTB6-57" style="edgeStyle=orthogonalEdgeStyle;rounded=0;orthogonalLoop=1;jettySize=auto;html=1;entryX=0;entryY=0.5;entryDx=0;entryDy=0;entryPerimeter=0;" parent="-a0xLOdZY-EFVbSBvTB6-2" source="-a0xLOdZY-EFVbSBvTB6-53" target="-a0xLOdZY-EFVbSBvTB6-56" edge="1">
          <mxGeometry relative="1" as="geometry" />
        </mxCell>
        <mxCell id="-a0xLOdZY-EFVbSBvTB6-3" value="Сотрудник банка" style="swimlane;html=1;startSize=20;horizontal=0;" parent="-a0xLOdZY-EFVbSBvTB6-1" vertex="1">
          <mxGeometry x="20" y="330" width="1830" height="350" as="geometry" />
        </mxCell>
        <mxCell id="-a0xLOdZY-EFVbSBvTB6-14" value="Рассмотреть заявку клиента" style="points=[[0.25,0,0],[0.5,0,0],[0.75,0,0],[1,0.25,0],[1,0.5,0],[1,0.75,0],[0.75,1,0],[0.5,1,0],[0.25,1,0],[0,0.75,0],[0,0.5,0],[0,0.25,0]];shape=mxgraph.bpmn.task;whiteSpace=wrap;rectStyle=rounded;size=10;html=1;container=1;expand=0;collapsible=0;taskMarker=user;" parent="-a0xLOdZY-EFVbSBvTB6-3" vertex="1">
          <mxGeometry x="530" y="70" width="120" height="80" as="geometry" />
        </mxCell>
        <mxCell id="-a0xLOdZY-EFVbSBvTB6-20" style="edgeStyle=orthogonalEdgeStyle;rounded=0;orthogonalLoop=1;jettySize=auto;html=1;entryX=0;entryY=0.5;entryDx=0;entryDy=0;entryPerimeter=0;" parent="-a0xLOdZY-EFVbSBvTB6-3" source="-a0xLOdZY-EFVbSBvTB6-14" edge="1">
          <mxGeometry relative="1" as="geometry">
            <mxPoint x="705" y="110" as="targetPoint" />
          </mxGeometry>
        </mxCell>
        <mxCell id="-a0xLOdZY-EFVbSBvTB6-21" value="" style="shape=mxgraph.bpmn.data;labelPosition=center;verticalLabelPosition=bottom;align=center;verticalAlign=top;size=15;html=1;" parent="-a0xLOdZY-EFVbSBvTB6-3" vertex="1">
          <mxGeometry x="745" y="190" width="40" height="60" as="geometry" />
        </mxCell>
        <mxCell id="-a0xLOdZY-EFVbSBvTB6-23" value="" style="edgeStyle=elbowEdgeStyle;fontSize=12;html=1;endFill=0;startFill=0;endSize=6;startSize=6;dashed=1;dashPattern=1 4;endArrow=openThin;startArrow=none;rounded=0;exitX=0.5;exitY=1;exitDx=0;exitDy=0;exitPerimeter=0;entryX=0.5;entryY=0;entryDx=0;entryDy=0;entryPerimeter=0;" parent="-a0xLOdZY-EFVbSBvTB6-3" target="-a0xLOdZY-EFVbSBvTB6-21" edge="1">
          <mxGeometry width="160" relative="1" as="geometry">
            <mxPoint x="765" y="150" as="sourcePoint" />
            <mxPoint x="670" y="210" as="targetPoint" />
          </mxGeometry>
        </mxCell>
        <mxCell id="-a0xLOdZY-EFVbSBvTB6-24" value="Договор на ипотеку" style="html=1;shape=mxgraph.flowchart.annotation_2;align=left;labelPosition=right;" parent="-a0xLOdZY-EFVbSBvTB6-3" vertex="1">
          <mxGeometry x="785" y="220" width="30" height="40" as="geometry" />
        </mxCell>
        <mxCell id="-a0xLOdZY-EFVbSBvTB6-27" value="" style="edgeStyle=elbowEdgeStyle;fontSize=12;html=1;endFill=0;startFill=0;endSize=6;startSize=6;dashed=1;dashPattern=1 4;endArrow=openThin;startArrow=none;rounded=0;entryX=0.5;entryY=1;entryDx=0;entryDy=0;entryPerimeter=0;" parent="-a0xLOdZY-EFVbSBvTB6-3" target="-a0xLOdZY-EFVbSBvTB6-25" edge="1">
          <mxGeometry width="160" relative="1" as="geometry">
            <mxPoint x="790" y="210" as="sourcePoint" />
            <mxPoint x="910" y="210" as="targetPoint" />
            <Array as="points">
              <mxPoint x="910" y="60" />
            </Array>
          </mxGeometry>
        </mxCell>
        <mxCell id="-a0xLOdZY-EFVbSBvTB6-43" style="edgeStyle=orthogonalEdgeStyle;rounded=0;orthogonalLoop=1;jettySize=auto;html=1;" parent="-a0xLOdZY-EFVbSBvTB6-3" target="-a0xLOdZY-EFVbSBvTB6-41" edge="1">
          <mxGeometry relative="1" as="geometry">
            <mxPoint x="1320" y="110" as="sourcePoint" />
          </mxGeometry>
        </mxCell>
        <mxCell id="-a0xLOdZY-EFVbSBvTB6-35" style="edgeStyle=orthogonalEdgeStyle;rounded=0;orthogonalLoop=1;jettySize=auto;html=1;entryX=0;entryY=0.5;entryDx=0;entryDy=0;entryPerimeter=0;" parent="-a0xLOdZY-EFVbSBvTB6-3" edge="1">
          <mxGeometry relative="1" as="geometry">
            <mxPoint x="1149" y="110" as="sourcePoint" />
            <mxPoint x="1200" y="110" as="targetPoint" />
          </mxGeometry>
        </mxCell>
        <mxCell id="-a0xLOdZY-EFVbSBvTB6-36" value="Договоры" style="shape=datastore;html=1;labelPosition=center;verticalLabelPosition=bottom;align=center;verticalAlign=top;" parent="-a0xLOdZY-EFVbSBvTB6-3" vertex="1">
          <mxGeometry x="1210" y="200" width="100" height="100" as="geometry" />
        </mxCell>
        <mxCell id="-a0xLOdZY-EFVbSBvTB6-37" value="" style="edgeStyle=elbowEdgeStyle;fontSize=12;html=1;endFill=0;startFill=0;endSize=6;startSize=6;dashed=1;dashPattern=1 4;endArrow=openThin;startArrow=none;rounded=0;entryX=0.5;entryY=0;entryDx=0;entryDy=0;" parent="-a0xLOdZY-EFVbSBvTB6-3" target="-a0xLOdZY-EFVbSBvTB6-36" edge="1">
          <mxGeometry width="160" relative="1" as="geometry">
            <mxPoint x="1300" y="150" as="sourcePoint" />
            <mxPoint x="1430" y="150" as="targetPoint" />
            <Array as="points">
              <mxPoint x="1260" y="170" />
            </Array>
          </mxGeometry>
        </mxCell>
        <mxCell id="-a0xLOdZY-EFVbSBvTB6-41" value="" style="points=[[0.25,0.25,0],[0.5,0,0],[0.75,0.25,0],[1,0.5,0],[0.75,0.75,0],[0.5,1,0],[0.25,0.75,0],[0,0.5,0]];shape=mxgraph.bpmn.gateway2;html=1;verticalLabelPosition=bottom;labelBackgroundColor=#ffffff;verticalAlign=top;align=center;perimeter=rhombusPerimeter;outlineConnect=0;outline=none;symbol=none;gwType=parallel;" parent="-a0xLOdZY-EFVbSBvTB6-3" vertex="1">
          <mxGeometry x="1380" y="140" width="50" height="50" as="geometry" />
        </mxCell>
        <mxCell id="-a0xLOdZY-EFVbSBvTB6-42" style="edgeStyle=orthogonalEdgeStyle;rounded=0;orthogonalLoop=1;jettySize=auto;html=1;entryX=0;entryY=0.5;entryDx=0;entryDy=0;entryPerimeter=0;exitX=0.5;exitY=1;exitDx=0;exitDy=0;exitPerimeter=0;" parent="-a0xLOdZY-EFVbSBvTB6-3" source="-a0xLOdZY-EFVbSBvTB6-41" edge="1">
          <mxGeometry relative="1" as="geometry">
            <mxPoint x="1410" y="160" as="sourcePoint" />
            <Array as="points">
              <mxPoint x="1405" y="250" />
            </Array>
            <mxPoint x="1460" y="250" as="targetPoint" />
          </mxGeometry>
        </mxCell>
        <mxCell id="-a0xLOdZY-EFVbSBvTB6-44" value="Уведомить клиента об успешном оформлении ипотеки" style="points=[[0.25,0,0],[0.5,0,0],[0.75,0,0],[1,0.25,0],[1,0.5,0],[1,0.75,0],[0.75,1,0],[0.5,1,0],[0.25,1,0],[0,0.75,0],[0,0.5,0],[0,0.25,0]];shape=mxgraph.bpmn.task;whiteSpace=wrap;rectStyle=rounded;size=10;html=1;container=1;expand=0;collapsible=0;taskMarker=service;" parent="-a0xLOdZY-EFVbSBvTB6-3" vertex="1">
          <mxGeometry x="1460" y="40" width="120" height="80" as="geometry" />
        </mxCell>
        <mxCell id="-a0xLOdZY-EFVbSBvTB6-46" style="edgeStyle=orthogonalEdgeStyle;rounded=0;orthogonalLoop=1;jettySize=auto;html=1;entryX=0;entryY=0.5;entryDx=0;entryDy=0;entryPerimeter=0;exitX=0.5;exitY=0;exitDx=0;exitDy=0;exitPerimeter=0;" parent="-a0xLOdZY-EFVbSBvTB6-3" source="-a0xLOdZY-EFVbSBvTB6-41" target="-a0xLOdZY-EFVbSBvTB6-44" edge="1">
          <mxGeometry relative="1" as="geometry" />
        </mxCell>
        <mxCell id="-a0xLOdZY-EFVbSBvTB6-47" value="" style="points=[[0.25,0.25,0],[0.5,0,0],[0.75,0.25,0],[1,0.5,0],[0.75,0.75,0],[0.5,1,0],[0.25,0.75,0],[0,0.5,0]];shape=mxgraph.bpmn.gateway2;html=1;verticalLabelPosition=bottom;labelBackgroundColor=#ffffff;verticalAlign=top;align=center;perimeter=rhombusPerimeter;outlineConnect=0;outline=none;symbol=none;gwType=parallel;" parent="-a0xLOdZY-EFVbSBvTB6-3" vertex="1">
          <mxGeometry x="1630" y="140" width="50" height="50" as="geometry" />
        </mxCell>
        <mxCell id="-a0xLOdZY-EFVbSBvTB6-48" style="edgeStyle=orthogonalEdgeStyle;rounded=0;orthogonalLoop=1;jettySize=auto;html=1;entryX=0.5;entryY=1;entryDx=0;entryDy=0;entryPerimeter=0;" parent="-a0xLOdZY-EFVbSBvTB6-3" target="-a0xLOdZY-EFVbSBvTB6-47" edge="1">
          <mxGeometry relative="1" as="geometry">
            <mxPoint x="1580" y="250" as="sourcePoint" />
          </mxGeometry>
        </mxCell>
        <mxCell id="-a0xLOdZY-EFVbSBvTB6-49" style="edgeStyle=orthogonalEdgeStyle;rounded=0;orthogonalLoop=1;jettySize=auto;html=1;entryX=0.5;entryY=0;entryDx=0;entryDy=0;entryPerimeter=0;" parent="-a0xLOdZY-EFVbSBvTB6-3" source="-a0xLOdZY-EFVbSBvTB6-44" target="-a0xLOdZY-EFVbSBvTB6-47" edge="1">
          <mxGeometry relative="1" as="geometry" />
        </mxCell>
        <mxCell id="-a0xLOdZY-EFVbSBvTB6-6" value="Ипотека оформлена" style="points=[[0.145,0.145,0],[0.5,0,0],[0.855,0.145,0],[1,0.5,0],[0.855,0.855,0],[0.5,1,0],[0.145,0.855,0],[0,0.5,0]];shape=mxgraph.bpmn.event;html=1;verticalLabelPosition=bottom;labelBackgroundColor=#ffffff;verticalAlign=top;align=center;perimeter=ellipsePerimeter;outlineConnect=0;aspect=fixed;outline=end;symbol=terminate2;" parent="-a0xLOdZY-EFVbSBvTB6-3" vertex="1">
          <mxGeometry x="1750" y="140" width="50" height="50" as="geometry" />
        </mxCell>
        <mxCell id="-a0xLOdZY-EFVbSBvTB6-50" style="edgeStyle=orthogonalEdgeStyle;rounded=0;orthogonalLoop=1;jettySize=auto;html=1;entryX=0;entryY=0.5;entryDx=0;entryDy=0;entryPerimeter=0;" parent="-a0xLOdZY-EFVbSBvTB6-3" source="-a0xLOdZY-EFVbSBvTB6-47" target="-a0xLOdZY-EFVbSBvTB6-6" edge="1">
          <mxGeometry relative="1" as="geometry" />
        </mxCell>
        <mxCell id="P9ozjkM_OFoo9wz9tVRu-2" value="Перевести средства" style="points=[[0.25,0,0],[0.5,0,0],[0.75,0,0],[1,0.25,0],[1,0.5,0],[1,0.75,0],[0.75,1,0],[0.5,1,0],[0.25,1,0],[0,0.75,0],[0,0.5,0],[0,0.25,0]];shape=mxgraph.bpmn.task;whiteSpace=wrap;rectStyle=rounded;size=10;html=1;container=1;expand=0;collapsible=0;taskMarker=service;" vertex="1" parent="-a0xLOdZY-EFVbSBvTB6-3">
          <mxGeometry x="1460" y="210" width="120" height="80" as="geometry" />
        </mxCell>
        <mxCell id="P9ozjkM_OFoo9wz9tVRu-3" value="Загрузить скан договора в приложение" style="points=[[0.25,0,0],[0.5,0,0],[0.75,0,0],[1,0.25,0],[1,0.5,0],[1,0.75,0],[0.75,1,0],[0.5,1,0],[0.25,1,0],[0,0.75,0],[0,0.5,0],[0,0.25,0]];shape=mxgraph.bpmn.task;whiteSpace=wrap;rectStyle=rounded;size=10;html=1;container=1;expand=0;collapsible=0;taskMarker=user;" vertex="1" parent="-a0xLOdZY-EFVbSBvTB6-3">
          <mxGeometry x="1200" y="70" width="120" height="80" as="geometry" />
        </mxCell>
        <mxCell id="P9ozjkM_OFoo9wz9tVRu-4" value="Сформировать договор" style="points=[[0.25,0,0],[0.5,0,0],[0.75,0,0],[1,0.25,0],[1,0.5,0],[1,0.75,0],[0.75,1,0],[0.5,1,0],[0.25,1,0],[0,0.75,0],[0,0.5,0],[0,0.25,0]];shape=mxgraph.bpmn.task;whiteSpace=wrap;rectStyle=rounded;size=10;html=1;container=1;expand=0;collapsible=0;taskMarker=service;" vertex="1" parent="-a0xLOdZY-EFVbSBvTB6-3">
          <mxGeometry x="705" y="70" width="120" height="80" as="geometry" />
        </mxCell>
        <mxCell id="-a0xLOdZY-EFVbSBvTB6-55" value="" style="edgeStyle=elbowEdgeStyle;fontSize=12;html=1;endArrow=blockThin;endFill=1;rounded=0;exitX=0.5;exitY=1;exitDx=0;exitDy=0;exitPerimeter=0;entryX=0;entryY=0.5;entryDx=0;entryDy=0;entryPerimeter=0;" parent="-a0xLOdZY-EFVbSBvTB6-1" source="-a0xLOdZY-EFVbSBvTB6-51" target="-a0xLOdZY-EFVbSBvTB6-14" edge="1">
          <mxGeometry width="160" relative="1" as="geometry">
            <mxPoint x="600" y="200" as="sourcePoint" />
            <mxPoint x="760" y="200" as="targetPoint" />
            <Array as="points">
              <mxPoint x="525" y="330" />
            </Array>
          </mxGeometry>
        </mxCell>
        <mxCell id="-a0xLOdZY-EFVbSBvTB6-59" value="Хорошая кредитная история" style="edgeLabel;html=1;align=center;verticalAlign=middle;resizable=0;points=[];" parent="-a0xLOdZY-EFVbSBvTB6-55" vertex="1" connectable="0">
          <mxGeometry x="-0.2333" y="-6" relative="1" as="geometry">
            <mxPoint as="offset" />
          </mxGeometry>
        </mxCell>
        <mxCell id="P9ozjkM_OFoo9wz9tVRu-1" value="" style="edgeStyle=elbowEdgeStyle;fontSize=12;html=1;endFill=0;startFill=0;endSize=6;startSize=6;dashed=1;dashPattern=1 4;endArrow=openThin;startArrow=none;rounded=0;entryX=0;entryY=0.75;entryDx=0;entryDy=0;entryPerimeter=0;exitX=0.5;exitY=1;exitDx=0;exitDy=0;exitPerimeter=0;" edge="1" parent="-a0xLOdZY-EFVbSBvTB6-1" source="-a0xLOdZY-EFVbSBvTB6-8" target="-a0xLOdZY-EFVbSBvTB6-14">
          <mxGeometry width="160" relative="1" as="geometry">
            <mxPoint x="280.14285714285734" y="300" as="sourcePoint" />
            <mxPoint x="280" y="350" as="targetPoint" />
            <Array as="points">
              <mxPoint x="270" y="400" />
            </Array>
          </mxGeometry>
        </mxCell>
      </root>
    </mxGraphModel>
  </diagram>
</mxfile>
